<?xml version="1.0" encoding="UTF-8" standalone="no"?>
<!DOCTYPE svg PUBLIC "-//W3C//DTD SVG 1.1//EN" "http://www.w3.org/Graphics/SVG/1.1/DTD/svg11.dtd">
<svg width="100%" height="100%" viewBox="0 0 111 82" version="1.1" xmlns="http://www.w3.org/2000/svg" xmlns:xlink="http://www.w3.org/1999/xlink" xml:space="preserve" xmlns:serif="http://www.serif.com/" style="fill-rule:evenodd;clip-rule:evenodd;stroke-linejoin:round;stroke-miterlimit:2;">
    <g transform="matrix(1,0,0,1,-9.79718,-18.1983)">
        <g transform="matrix(0.993352,0,0,0.993352,0.065134,0.120987)">
            <path d="M113.79,100.331C118.681,92.007 121.256,82.565 121.256,72.953C121.256,42.733 96.284,18.198 65.527,18.198C34.769,18.198 9.797,42.733 9.797,72.953C9.797,82.565 12.372,92.007 17.264,100.331L113.79,100.331Z" style="fill:rgb(219,50,77);"/>
        </g>
        <path d="M36.4,35.3C38.8,37.6 41,40.1 42.8,42.9C45.4,46.8 47,51.1 47.3,55.8C47.6,60.5 46.4,65 44.2,69.2C43.9,69.8 43.5,70.5 43.2,71.1C44.2,70.5 45.1,69.8 46.1,69.2C48.9,67.5 51.9,66.3 54.9,65.3C55.2,65.2 55.4,65 55.4,64.7C55.6,63.1 55.9,61.4 56.1,59.8C56.4,56 56,52.3 54.5,48.7C53,44.9 50.5,41.6 47.7,38.6C47.5,38.4 47.3,38.3 47.1,38.3C44.7,37.5 42.2,36.7 39.8,36C38.6,35.6 37.3,35.3 36,34.9C36.2,35.1 36.3,35.2 36.4,35.3Z" style="fill:white;fill-rule:nonzero;"/>
        <path d="M40.3,86L61.1,85.6C61.4,85.6 63.7,85.4 63.9,85.4C68.3,85.2 72.8,85 77.2,84.9C78.3,84.9 79.6,84.9 80.8,84.8C81.8,84.7 83.1,84.3 84.2,84C87.4,83.3 90.3,82 92.8,80C94.9,78.3 96.3,76.1 96.4,73.3C96.5,71.3 96,69.4 95.3,67.5C94.1,64 92.3,60.8 90.4,57.6C90,57 89.7,56.3 89.4,55.5C89.2,54.9 89.2,54.3 89.3,53.7C89.4,52.9 90,52.5 90.8,52.4C91.6,52.4 92,52.7 92.3,53.5C92.4,53.9 92.5,54.3 92.7,54.7C92.9,55.2 93.2,55.5 93.7,55.5C94.4,55.5 95.1,55.5 95.9,55.4C95.2,51.2 94.5,47.1 93.7,43C93.6,43 93.5,43.1 93.5,43.1C92.6,44.1 91.5,44.6 90.3,45C87.8,45.9 86,47.5 85.4,50.1C85,51.6 85.1,53 85.5,54.5C85.7,55.3 86,56.1 86.2,56.9C85.4,62.7 82.2,68.6 77.3,71.9C77.2,71.6 77.1,71.4 77,71.2C76,68.5 73.4,66.7 70.7,66.7C67.1,66.7 64,69.6 63.8,73.3C63.8,73.6 63.8,74 63.7,74.4C62.6,72.4 61.1,71.2 58.9,71.4C56.3,71.6 55.1,73.3 54.5,75.7C53.5,74.1 52,73.3 50.2,73.7C48.3,74.1 47.4,75.4 47,77.2C44.3,77 41.8,76.1 39.4,75.1C37.4,74.3 35.7,73.1 34.6,71.2C34.6,71.2 34.1,70.4 33.9,70C34,69.8 34,69.6 34.1,69.4C34.5,67.9 34.5,66.3 34,64.8C33.4,63.1 31.8,62.4 30.1,63C29.1,63.3 28.5,64.1 28.4,65.2C28.4,66 28.7,66.8 29.4,67.2C30.1,67.7 30.9,67.7 31.6,67.3C32.2,67 32.4,66.4 32.3,65.8C32.2,65.2 31.7,64.8 31.1,64.7C30.5,64.7 30.1,64.9 29.9,65.6C29.9,65.6 29.8,65.7 29.8,65.8C29.8,64.7 30.7,64 31.7,64.4C32.4,64.7 32.8,65.3 32.8,66.1C32.8,66.9 32.6,67.8 32.5,68.6C32,71 31.2,73.4 31,75.9C30.6,80.5 33.5,84.4 38,85.4C38.1,85.9 40,86 40.3,86ZM50.9,81.1C49.4,81.2 48.1,79.9 48.1,78.3C48.1,76.7 49.2,75.4 50.7,75.3C52.2,75.2 53.5,76.5 53.5,78.1C53.6,79.7 52.4,81.1 50.9,81.1ZM59.3,80.8C57.4,80.8 55.8,79.2 55.7,77.1C55.7,75 57.2,73.3 59.1,73.3C61,73.3 62.7,74.9 62.7,77C62.8,79 61.3,80.7 59.3,80.8ZM76.2,74.7C76.1,77.4 74.3,79.6 71.9,80.2C68.6,81 65.5,78.7 65.1,75.2L65.1,74.6C65,71.4 67.3,68.8 70.3,68.6C73.6,68.3 76.4,71.2 76.2,74.7Z" style="fill:white;fill-rule:nonzero;"/>
        <path d="M62.3,63.3C64.9,63.1 67.4,62.9 70,62.8C70,62.8 70,62.7 70.1,62.5C70.5,60.3 70.6,58 70.3,55.7C69.8,51.5 67.9,47.9 65.3,44.7C65.2,44.5 64.9,44.4 64.7,44.3C63,43.7 61.3,43.1 59.6,42.5C58.7,42.2 57.8,41.9 56.8,41.5C61.8,48.1 63.6,55.3 62.3,63.3Z" style="fill:white;fill-rule:nonzero;"/>
        <path d="M75,64.1C77.2,65.2 78.5,66.9 78.7,69.4L78.8,69.4C79.1,68.4 79.5,67.4 79.7,66.3C80.7,62.6 80.7,58.9 79.1,55.3C77.6,51.8 75.1,49.2 72,47.1C71.4,46.7 70.5,46.5 69.7,46.1C74.2,51.5 76.5,57.2 75,64.1Z" style="fill:white;fill-rule:nonzero;"/>
        <path d="M72.08,68.29C68.16,67.18 64.23,70.32 64.43,74.58C64.63,78.46 67.96,81.24 71.69,80.5C74.44,79.95 76.59,77.54 76.79,74.77C76.79,71.63 74.83,69.04 72.08,68.3L72.08,68.29Z" style="fill:white;fill-rule:nonzero;"/>
        <path d="M59.05,72.65C56.53,72.84 54.64,74.78 54.85,77.09C55.06,79.4 56.95,81.34 59.47,81.34C61.99,81.34 63.88,79.21 63.88,76.7C63.67,74.38 61.57,72.45 59.05,72.64L59.05,72.65Z" style="fill:white;fill-rule:nonzero;"/>
        <path d="M50.82,74.85C48.84,74.85 47.31,76.61 47.31,78.57C47.53,80.53 49.07,81.9 51.04,81.9C53.01,81.9 54.55,80.14 54.55,78.38C54.55,76.23 52.79,74.66 50.82,74.86L50.82,74.85Z" style="fill:white;fill-rule:nonzero;"/>
    </g>
</svg>
